<?xml version="1.0" standalone="no"?>
<!DOCTYPE svg PUBLIC "-//W3C//DTD SVG 20010904//EN"
 "http://www.w3.org/TR/2001/REC-SVG-20010904/DTD/svg10.dtd">
<svg version="1.0" xmlns="http://www.w3.org/2000/svg"
 width="667.000000pt" height="800.000000pt" viewBox="0 0 667.000000 800.000000"
 preserveAspectRatio="xMidYMid meet">

<g transform="translate(0.000000,800.000000) scale(0.100000,-0.100000)"
fill="#FFFFFF" stroke="none">
<path d="M3282 7097 c-102 -53 -198 -186 -209 -291 -3 -28 0 -83 6 -121 9 -59
19 -82 65 -149 l55 -80 -64 -67 c-79 -84 -90 -117 -76 -219 9 -64 14 -79 41
-102 40 -36 106 -41 164 -12 16 8 31 14 33 14 1 0 3 -162 3 -360 l0 -359 -41
-11 c-23 -6 -43 -9 -46 -6 -3 3 -19 149 -37 325 -17 176 -34 323 -38 327 -12
11 -11 -4 22 -326 16 -162 30 -305 30 -317 0 -18 -9 -25 -41 -33 -23 -6 -42
-10 -44 -8 -2 2 -42 198 -90 437 l-87 433 34 35 c33 34 33 35 32 122 -2 93
-12 123 -51 154 -19 15 -21 22 -12 39 18 33 12 167 -10 210 l-18 37 38 25 c48
32 60 75 50 168 -7 72 -29 113 -72 136 -45 24 -242 -8 -354 -57 -35 -15 -49
-30 -70 -70 -56 -111 -76 -322 -56 -581 15 -186 23 -225 51 -255 12 -12 107
-228 211 -480 199 -480 212 -522 168 -545 -11 -7 -23 -9 -26 -6 -4 3 -86 155
-184 338 -98 183 -183 334 -190 337 -7 2 3 -25 23 -60 109 -199 330 -620 327
-623 -2 -2 -22 -6 -44 -10 l-40 -6 -305 456 c-168 251 -308 461 -312 467 -4 6
-9 9 -12 6 -3 -3 134 -214 304 -470 l310 -464 -32 -12 c-18 -6 -40 -12 -48
-12 -8 0 -114 121 -235 269 -121 148 -221 265 -223 260 -2 -5 94 -127 212
-271 149 -181 212 -265 204 -270 -7 -5 -30 -11 -52 -15 l-39 -6 -363 363
c-200 200 -364 359 -364 354 0 -5 161 -171 357 -367 235 -235 352 -359 342
-362 -66 -23 -102 -27 -117 -13 -122 104 -426 347 -430 342 -3 -3 -3 -6 -1 -8
16 -13 406 -332 414 -339 14 -12 -6 -23 -70 -37 l-54 -12 -350 235 c-192 130
-355 236 -363 236 -7 0 147 -106 342 -237 329 -219 353 -237 330 -246 -14 -6
-43 -19 -64 -29 -22 -10 -44 -18 -48 -18 -5 0 -81 39 -169 86 -88 47 -163 84
-165 81 -3 -3 43 -31 103 -62 59 -32 131 -71 160 -87 l52 -29 -55 -45 -55 -45
-312 130 c-266 110 -339 137 -316 117 2 -2 141 -60 309 -129 251 -104 304
-130 302 -144 -2 -10 -6 -39 -9 -65 -3 -27 -8 -48 -12 -48 -3 0 -71 20 -151
45 -79 24 -146 42 -149 40 -7 -8 -2 -10 154 -57 l150 -45 3 -66 c2 -37 1 -67
0 -67 -2 0 -161 32 -353 70 -192 39 -356 70 -365 69 -37 -1 45 -20 373 -85
l347 -69 0 -62 c0 -54 -3 -63 -17 -62 -10 0 -94 8 -188 18 -157 17 -185 18
-174 7 2 -2 81 -12 174 -21 236 -22 215 -14 215 -85 l0 -60 -392 -3 -393 -2
393 -3 392 -2 0 -63 0 -63 -195 -19 c-107 -10 -195 -22 -195 -27 0 -6 20 -7
48 -4 26 3 97 10 157 16 61 6 127 13 148 15 l37 5 0 -63 0 -62 -322 -63 c-412
-81 -419 -82 -413 -91 3 -6 582 103 713 134 21 5 22 3 22 -59 l0 -64 -97 -31
c-54 -16 -126 -38 -160 -48 -35 -10 -63 -21 -63 -25 0 -12 9 -10 164 37 82 25
150 45 152 45 2 0 4 -30 4 -67 l-1 -68 -267 -110 c-343 -140 -359 -147 -345
-152 6 -2 146 52 311 120 l300 124 6 -45 c13 -97 16 -92 -96 -152 -56 -29 -97
-55 -90 -58 7 -2 50 17 96 42 46 25 87 46 90 46 3 0 6 -36 6 -80 l0 -80 -210
-140 c-115 -77 -210 -145 -210 -150 0 -6 91 51 203 125 l202 135 6 -50 c4 -28
14 -62 24 -76 16 -24 16 -27 -1 -45 -20 -23 -8 -26 16 -4 15 14 23 12 76 -15
32 -16 65 -30 72 -30 6 0 12 -3 12 -8 0 -4 -77 -84 -170 -177 -94 -93 -170
-174 -170 -180 0 -5 82 72 183 173 l182 182 99 0 98 0 -49 -57 c-88 -103 -126
-153 -116 -153 5 0 48 49 97 108 l88 108 89 23 c50 13 92 22 94 19 3 -2 -96
-155 -219 -339 -123 -184 -222 -336 -220 -338 5 -6 -21 -43 239 344 126 187
233 343 239 347 12 8 137 40 141 36 2 -2 -56 -112 -127 -246 -72 -134 -128
-245 -125 -248 2 -3 64 107 137 243 72 136 135 252 139 256 10 10 114 38 119
32 3 -2 -84 -218 -193 -480 -108 -262 -195 -478 -192 -481 5 -5 32 58 257 602
l153 371 49 13 c27 6 51 10 53 8 2 -2 -43 -158 -101 -347 -57 -190 -103 -349
-101 -355 3 -6 12 14 21 44 9 30 58 192 109 360 l93 305 42 14 c24 7 45 11 47
9 4 -4 -164 -867 -170 -876 -1 -1 -15 5 -31 13 -21 11 -43 14 -78 9 -35 -5
-51 -3 -57 7 -8 12 -11 11 -19 -3 -5 -9 -41 -25 -78 -37 -76 -23 -92 -36 -121
-101 -33 -75 -44 -195 -39 -404 6 -228 10 -241 93 -281 45 -22 63 -26 98 -21
60 10 200 80 231 117 23 27 26 39 26 106 0 69 -2 77 -30 104 -25 25 -28 34
-20 55 14 35 12 128 -1 158 -11 22 -8 29 21 62 l33 38 -6 91 c-5 85 0 119 82
530 l86 440 39 13 c21 7 41 11 43 9 2 -2 -15 -187 -37 -411 -44 -443 -43 -438
-31 -416 4 8 26 196 47 418 21 222 41 407 44 411 3 5 20 12 38 16 l32 7 0
-456 0 -456 -31 0 c-46 0 -145 -28 -202 -56 -76 -39 -77 -45 -77 -386 0 -172
4 -308 11 -330 22 -82 86 -116 137 -73 29 24 42 59 59 153 5 24 13 42 18 40 6
-1 22 -33 37 -72 15 -38 42 -84 60 -103 28 -29 39 -33 72 -31 29 2 44 10 60
31 30 40 28 187 -3 267 l-21 55 32 64 c30 59 33 72 33 160 0 69 -5 109 -18
143 -20 51 -81 114 -122 124 l-25 6 0 464 0 463 33 9 c17 5 34 8 35 6 2 -1 23
-199 47 -439 24 -240 46 -439 49 -442 11 -11 6 50 -35 466 -22 227 -37 417
-32 421 4 4 20 10 34 14 l27 6 99 -503 c95 -478 99 -503 83 -522 -93 -109
-160 -343 -160 -559 0 -162 21 -206 99 -206 38 0 84 54 101 119 14 51 33 71
66 71 24 0 34 -17 34 -61 0 -47 30 -108 61 -124 78 -41 132 6 150 130 19 139
-26 441 -87 576 -19 42 -37 91 -40 108 -4 18 -12 30 -18 28 -12 -5 -12 -10 -1
-47 7 -22 6 -23 -8 -11 -28 23 -87 31 -128 17 l-37 -13 -96 486 c-53 267 -96
493 -96 502 0 18 48 35 60 22 4 -4 62 -192 130 -418 127 -424 134 -444 142
-429 3 5 -51 193 -119 417 -69 225 -123 411 -120 413 2 2 22 -4 45 -14 l41
-17 221 -536 c228 -550 235 -567 244 -558 3 2 -94 244 -216 537 -121 293 -218
535 -215 538 3 3 25 2 48 -3 l43 -8 168 -314 c151 -284 205 -377 184 -316 -4
11 -79 154 -167 318 -87 164 -159 302 -159 308 0 5 22 9 48 9 l49 0 284 -426
c156 -235 287 -431 291 -437 4 -6 10 -9 13 -5 4 3 -120 196 -275 428 -155 232
-283 427 -286 434 -5 14 85 41 96 29 4 -4 89 -109 190 -233 219 -269 198 -245
205 -238 3 3 -82 113 -189 243 -107 131 -193 242 -190 247 3 4 22 17 43 27
l37 20 345 -345 c189 -189 348 -344 354 -344 5 0 -147 157 -339 349 l-349 349
34 31 c19 17 39 30 44 30 6 0 108 -80 228 -179 120 -99 224 -180 230 -180 14
0 33 -16 -225 195 -120 98 -218 180 -218 184 1 9 58 71 66 71 3 0 181 -117
395 -260 213 -143 394 -260 401 -260 7 0 -166 119 -385 265 -218 146 -397 269
-397 274 0 5 26 19 57 31 57 21 57 21 93 2 194 -106 402 -214 406 -209 3 2
-87 54 -200 113 -113 60 -206 112 -206 116 0 4 28 22 61 39 l62 31 354 -147
c195 -81 357 -144 360 -141 3 3 -6 10 -20 15 -44 17 -662 273 -670 278 -4 3 8
22 28 44 19 21 35 44 35 49 0 16 21 12 176 -35 81 -25 149 -43 152 -40 6 6 1
8 -163 58 l-140 42 -2 55 c-1 30 -1 60 1 66 3 8 121 -12 365 -61 199 -40 361
-69 361 -65 0 4 -154 38 -342 75 -189 38 -353 72 -365 76 -20 7 -23 16 -23 63
0 30 3 57 8 59 6 4 210 -13 325 -28 26 -3 47 -2 47 3 0 5 -82 17 -182 26 -101
10 -187 21 -191 25 -5 5 -7 32 -5 62 l3 54 385 5 385 5 -385 5 -385 5 -3 57
c-4 68 -23 61 208 83 153 15 180 19 169 28 -2 2 -85 -4 -184 -14 -99 -10 -184
-14 -188 -10 -5 5 -7 32 -5 62 l3 53 358 72 c324 64 406 84 351 84 -10 0 -173
-31 -361 -69 -189 -37 -345 -66 -348 -63 -3 3 -5 31 -5 63 l0 58 83 25 c45 13
115 34 155 46 39 12 72 26 72 32 0 5 -8 7 -17 4 -10 -3 -77 -23 -150 -46 -73
-22 -135 -40 -138 -40 -3 0 -5 30 -5 68 l0 67 243 99 c301 123 372 155 364
162 -3 3 -137 -49 -298 -115 -160 -67 -296 -121 -301 -121 -5 0 -8 32 -6 72
l3 72 78 42 c75 40 110 64 92 64 -4 0 -46 -20 -92 -45 l-83 -45 0 85 0 85 206
137 c113 76 201 139 196 141 -5 1 -97 -56 -203 -128 l-194 -131 -6 89 c-4 49
-12 98 -18 110 -14 26 -91 92 -108 92 -7 0 -13 3 -13 8 0 4 63 70 140 147 76
76 137 141 134 144 -2 3 -69 -59 -148 -138 l-144 -143 -64 16 c-35 9 -72 16
-81 16 -25 0 -21 15 14 55 18 20 29 38 27 41 -3 3 -24 -17 -46 -43 -39 -47
-44 -49 -114 -61 -40 -6 -86 -14 -101 -18 -26 -6 -12 19 153 266 100 149 179
274 176 277 -2 3 -86 -118 -187 -269 -100 -150 -185 -277 -189 -281 -10 -11
-161 -50 -167 -43 -3 3 38 85 90 183 53 98 94 180 91 182 -6 6 -1 14 -109
-189 -54 -102 -99 -186 -100 -188 -4 -5 -139 -42 -142 -39 -4 4 313 767 356
858 50 105 64 191 57 349 -9 224 -43 350 -115 432 -98 112 -278 109 -377 -5
-103 -120 -147 -304 -124 -527 14 -141 25 -189 62 -263 l28 -57 -81 -413 c-45
-226 -83 -414 -84 -415 -2 -2 -23 8 -47 22 l-44 25 28 273 c27 276 32 356 23
346 -3 -3 -19 -140 -35 -304 -16 -164 -33 -301 -37 -305 -5 -3 -27 -9 -50 -13
l-43 -6 0 361 0 361 48 52 c55 61 107 153 121 218 13 56 -2 206 -26 251 -9 18
-33 52 -54 76 -22 24 -39 48 -39 52 0 5 26 27 58 50 85 62 92 73 91 154 0 91
-16 134 -58 162 -45 31 -120 31 -179 0z m165 -29 c21 -17 34 -55 27 -82 -3
-12 -27 -36 -53 -54 -86 -59 -116 -97 -116 -146 0 -38 7 -51 53 -104 62 -72
91 -132 92 -188 0 -77 -89 -219 -177 -282 -96 -68 -202 -31 -179 63 3 13 40
60 81 104 67 72 75 85 75 119 0 25 -9 52 -23 73 -13 19 -44 65 -70 102 -40 58
-47 75 -47 117 0 26 9 69 20 94 20 48 83 123 133 158 65 46 146 58 184 26z
m-518 -24 c27 -35 27 -75 -1 -101 -24 -22 -106 -66 -199 -106 -51 -23 -57 -28
-62 -63 -13 -76 -14 -75 53 -48 107 43 180 25 180 -47 0 -44 -43 -80 -147
-122 l-88 -35 -3 -51 c-2 -30 1 -51 7 -51 6 0 50 11 97 25 47 14 98 25 112 25
40 0 72 -37 72 -81 0 -31 -6 -42 -32 -62 -45 -34 -142 -81 -217 -107 -75 -25
-124 -16 -178 33 -31 30 -36 40 -43 107 -24 207 -5 488 41 585 23 50 48 64
159 94 93 25 112 28 177 30 45 1 54 -3 72 -25z m1076 -13 c50 -23 76 -51 109
-117 38 -76 57 -172 57 -293 0 -128 -12 -196 -50 -276 -36 -77 -92 -131 -155
-150 -60 -18 -74 -18 -134 -3 -152 38 -239 297 -186 554 20 101 58 179 114
234 68 69 163 89 245 51z m-1004 -1308 l86 -431 -41 -11 c-23 -5 -44 -7 -47
-3 -4 4 -48 144 -99 312 -50 168 -96 312 -101 320 -23 40 -2 -40 86 -331 52
-172 94 -313 92 -314 -1 -1 -20 -8 -42 -16 l-41 -16 -171 416 c-95 229 -175
424 -179 435 -7 17 -6 17 26 1 34 -18 100 -23 137 -11 18 6 23 3 29 -18 3 -14
13 -31 21 -38 14 -11 15 -8 8 22 -4 19 -8 38 -9 42 -1 9 136 77 149 74 5 -1
48 -196 96 -433z m735 386 c22 -25 86 -59 110 -59 10 0 14 -5 11 -15 -4 -8 -2
-17 2 -20 5 -3 11 1 14 9 3 7 28 16 56 20 53 7 101 25 140 53 31 22 41 51
-138 -382 l-150 -360 -57 -17 c-32 -9 -60 -16 -61 -14 -2 2 35 130 82 285 47
156 85 289 83 297 -2 9 -43 -118 -92 -280 -49 -163 -93 -301 -97 -307 -8 -14
-99 -25 -99 -13 0 28 164 824 170 824 4 0 15 -9 26 -21z m759 -685 c77 -20
115 -42 138 -82 52 -89 -56 -206 -238 -257 -33 -9 -125 -36 -205 -60 -80 -24
-253 -71 -385 -105 -255 -65 -993 -262 -1260 -336 -180 -49 -298 -69 -365 -59
-126 17 -212 65 -225 124 -14 63 51 143 156 194 30 15 117 44 194 66 200 57
557 151 573 151 9 0 11 -9 7 -32 -10 -59 19 -94 127 -154 53 -29 108 -56 122
-60 25 -6 26 -4 26 35 0 50 -8 46 204 106 173 49 214 53 251 29 13 -8 34 -14
47 -12 22 3 23 6 26 121 l3 118 -31 27 -30 27 102 28 c151 41 519 135 548 140
58 10 160 6 215 -9z m-1008 -141 c45 -26 83 -50 83 -54 0 -4 -24 -12 -52 -18
-29 -7 -119 -29 -199 -51 -81 -22 -156 -40 -168 -40 -23 0 -180 92 -165 97 7
2 395 108 413 112 2 1 42 -20 88 -46z m145 -175 c3 -40 3 -75 2 -77 -2 -2 -10
-1 -19 2 -21 9 -22 147 -1 147 10 0 15 -20 18 -72z m-602 16 l80 -46 0 -93 c0
-52 -4 -96 -8 -99 -4 -2 -42 15 -84 39 l-76 45 -4 52 c-4 62 1 148 8 148 3 0
41 -21 84 -46z m1618 -43 c-2 -39 -7 -73 -10 -77 -10 -10 -68 35 -68 54 0 23
50 92 67 92 12 0 15 -13 11 -69z m-158 -39 c0 -4 -11 -24 -25 -45 -21 -30 -29
-35 -44 -28 -25 14 -45 40 -37 49 20 20 106 40 106 24z m93 -70 c18 -19 17
-20 -11 -41 -35 -25 -80 -28 -88 -6 -4 8 6 31 20 50 29 38 43 37 79 -3z m-283
23 c0 -8 -72 -115 -77 -115 -15 0 -73 56 -71 68 4 19 148 64 148 47z m84 -54
c16 -18 16 -22 2 -49 -20 -39 -53 -62 -88 -62 -37 0 -36 16 3 79 34 55 55 63
83 32z m-334 -67 c-14 -25 -28 -48 -32 -50 -13 -8 -89 49 -86 64 4 18 118 53
133 40 6 -5 0 -25 -15 -54z m620 -396 c0 -429 -2 -466 -19 -503 -10 -22 -31
-52 -47 -67 -32 -30 -144 -89 -155 -82 -4 2 -7 52 -7 111 -1 164 -39 276 -125
371 -52 57 -261 213 -332 247 -63 31 -146 55 -195 55 -63 1 -12 18 314 105
172 46 338 94 369 105 55 21 167 95 167 112 0 4 7 8 15 8 13 0 15 -58 15 -462z
m-505 387 c14 -13 25 -31 25 -39 0 -24 -50 -56 -86 -56 -41 0 -44 20 -14 80
24 46 41 50 75 15z m295 16 c0 -12 -20 -25 -27 -18 -7 7 6 27 18 27 5 0 9 -4
9 -9z m-610 -19 c0 -17 -58 -92 -72 -92 -18 0 -78 46 -78 61 0 11 121 47 138
41 6 -2 12 -7 12 -10z m94 -54 c36 -24 47 -57 24 -76 -31 -25 -138 -27 -138
-2 0 18 55 100 67 100 6 0 27 -10 47 -22z m-314 -4 c0 -22 -46 -84 -63 -84
-26 0 -89 39 -84 53 7 21 147 50 147 31z m97 -60 c28 -21 32 -28 22 -45 -6
-12 -26 -27 -46 -35 -31 -13 -38 -13 -59 1 -13 8 -24 18 -24 20 0 14 52 85 62
85 6 0 26 -11 45 -26z m-352 -43 c-15 -22 -33 -41 -39 -41 -16 0 -89 51 -82
57 12 12 132 40 139 33 5 -4 -3 -26 -18 -49z m120 -4 c47 -27 54 -48 25 -75
-38 -35 -112 -34 -126 2 -6 14 40 96 54 96 4 0 25 -11 47 -23z m-315 -10 c0
-7 -11 -29 -26 -50 l-25 -38 -38 23 c-21 13 -40 27 -42 33 -2 5 21 17 51 27
67 21 80 22 80 5z m97 -53 c39 -29 40 -40 11 -71 -33 -35 -108 -23 -108 17 0
18 42 80 54 80 5 0 24 -11 43 -26z m-314 0 c10 -11 -46 -104 -63 -104 -26 0
-74 45 -67 63 8 22 115 56 130 41z m105 -54 c17 -11 32 -22 32 -24 0 -32 -70
-87 -100 -79 -38 10 -42 28 -18 77 24 51 38 55 86 26z m-329 -19 c11 -7 10
-15 -8 -45 -13 -20 -31 -36 -41 -36 -27 0 -75 44 -66 59 17 26 87 40 115 22z
m1165 -18 c57 -18 127 -63 122 -78 -1 -5 -37 -12 -78 -15 -63 -5 -91 -13 -165
-49 -165 -82 -292 -239 -355 -441 -30 -99 -32 -282 -4 -378 10 -34 16 -65 13
-69 -12 -12 -100 71 -139 131 -63 97 -81 175 -75 314 7 186 60 310 182 433
156 158 326 209 499 152z m-382 -1 c-138 -101 -209 -183 -268 -307 -52 -109
-69 -184 -68 -310 1 -153 31 -250 111 -354 25 -33 30 -47 21 -52 -28 -15 -479
-130 -488 -124 -6 3 -10 54 -10 115 0 77 -4 109 -12 113 -11 4 -88 -14 -258
-60 l-35 -9 -5 -122 c-4 -93 -9 -125 -20 -132 -28 -18 -150 -42 -217 -43 l-68
-2 4 485 c2 328 7 487 14 492 6 3 38 9 71 13 51 6 605 148 1086 279 69 18 134
34 145 34 19 1 18 0 -3 -16z m-684 -32 c39 -24 39 -44 0 -73 -29 -22 -75 -17
-84 8 -6 14 31 85 44 85 4 0 22 -9 40 -20z m322 10 c0 -5 -4 -10 -10 -10 -5 0
-10 5 -10 10 0 6 5 10 10 10 6 0 10 -4 10 -10z m-637 -12 c16 -12 15 -16 -8
-50 -29 -43 -56 -48 -94 -19 -30 23 -24 42 21 64 40 20 59 21 81 5z m-553 -24
c0 -8 -4 -14 -10 -14 -5 0 -10 9 -10 21 0 11 5 17 10 14 6 -3 10 -13 10 -21z
m165 -14 c-3 -5 -12 -7 -20 -3 -21 7 -19 13 6 13 11 0 18 -4 14 -10z m-72 -25
c55 -38 46 -81 -11 -51 -37 19 -56 42 -48 61 7 20 15 19 59 -10z m236 8 l22
-18 -28 -33 -28 -34 -42 31 c-24 17 -43 35 -43 39 0 34 83 44 119 15z m346 1
c31 -20 31 -35 2 -62 -30 -29 -77 -37 -101 -19 -19 14 -19 15 3 50 31 50 55
58 96 31z m-234 -60 c37 -19 36 -52 -3 -73 -31 -18 -81 -6 -86 20 -3 17 34 69
49 69 6 0 24 -7 40 -16z m1741 -16 c114 -53 193 -153 229 -292 62 -236 -38
-511 -242 -671 -103 -80 -160 -99 -294 -100 -106 0 -112 1 -173 34 -109 59
-180 160 -217 306 -32 130 0 318 77 454 68 119 215 242 338 283 81 27 206 20
282 -14z m-1955 -18 c48 -28 48 -29 30 -54 -12 -16 -17 -17 -38 -6 -48 25 -69
51 -58 72 6 11 13 18 17 16 4 -2 26 -14 49 -28z m-181 -1 c41 -25 45 -45 6
-25 -29 15 -61 46 -47 46 4 0 23 -9 41 -21z m2 -78 c20 -10 60 -24 89 -30 28
-7 54 -19 57 -26 3 -8 3 -65 1 -127 -2 -62 -5 -289 -7 -505 -3 -445 -8 -418
85 -478 25 -16 46 -34 46 -39 1 -5 -39 -6 -90 -4 -73 5 -101 11 -147 34 -95
48 -90 16 -93 629 -1 292 -1 538 0 548 1 22 13 22 59 -2z m2647 -445 c-11 -64
-30 -90 -90 -131 -54 -36 -148 -75 -180 -75 -19 0 -19 -5 8 65 22 57 24 59
103 99 44 23 95 53 114 68 19 15 38 24 43 21 5 -3 5 -24 2 -47z m-1887 -363
c-2 -64 -7 -98 -15 -100 -15 -5 -20 19 -27 120 -4 76 -4 77 20 77 l25 0 -3
-97z m-77 -19 c6 -86 1 -112 -19 -100 -10 6 -25 173 -16 187 17 27 29 -4 35
-87z m-78 69 c3 -5 8 -47 12 -95 6 -77 5 -88 -9 -88 -12 0 -16 9 -16 34 0 18
-3 61 -6 95 -5 41 -3 61 4 61 6 0 13 -3 15 -7z m-52 -107 c2 -58 -1 -91 -8
-93 -6 -2 -13 6 -17 19 -8 31 -8 163 1 172 15 14 22 -13 24 -98z m861 22 c29
-22 55 -43 57 -45 9 -7 -14 -14 -304 -92 -685 -183 -678 -181 -774 -181 -77 0
-95 3 -142 28 -29 15 -54 32 -56 38 -2 7 30 16 87 23 50 6 139 24 198 40 59
16 262 69 452 119 190 51 359 96 375 101 47 14 50 14 107 -31z m-519 -1120
c41 -47 9 -88 -111 -138 -93 -40 -98 -45 -105 -94 -6 -36 -5 -38 16 -31 120
38 155 36 170 -9 15 -44 -16 -75 -109 -113 -73 -30 -79 -34 -82 -63 -6 -59 -1
-61 88 -32 94 29 129 24 144 -20 17 -47 -5 -73 -96 -117 -113 -54 -146 -62
-193 -45 -64 22 -76 41 -87 140 -15 128 -4 323 22 407 18 59 25 69 58 86 33
16 137 44 202 54 37 6 63 -2 83 -25z m462 -13 c50 -37 75 -95 75 -173 0 -72
-15 -109 -66 -163 l-35 -36 37 -76 c26 -55 38 -96 41 -141 5 -61 4 -65 -21
-81 -41 -27 -71 -8 -105 68 -16 34 -34 79 -40 99 -15 47 -25 53 -60 39 -25
-11 -28 -19 -39 -93 -6 -45 -19 -92 -27 -105 -21 -32 -61 -27 -89 10 -20 27
-21 43 -24 298 -4 308 -4 306 76 342 125 55 216 59 277 12z m479 -16 c45 -39
72 -110 102 -269 49 -260 18 -412 -74 -368 -33 16 -51 63 -51 136 -1 62 -6 65
-81 55 l-54 -8 -18 -60 c-24 -82 -36 -102 -69 -116 -57 -23 -85 38 -76 165 12
190 71 369 146 447 43 45 51 49 94 49 37 0 53 -6 81 -31z"/>
<path d="M3871 6791 c-61 -61 -58 -322 4 -381 33 -31 56 -22 83 31 46 93 38
293 -14 345 -28 29 -48 30 -73 5z m68 -152 c20 -59 2 -197 -27 -207 -22 -7
-45 67 -39 131 5 55 27 107 46 107 5 0 14 -14 20 -31z"/>
<path d="M4284 5403 c-38 -7 -103 -71 -115 -114 -17 -54 -5 -63 84 -66 130 -6
251 56 232 117 -14 44 -123 78 -201 63z m134 -71 l24 -16 -34 -17 c-44 -24
-43 -24 -69 12 -16 23 -19 33 -10 39 16 9 60 1 89 -18z"/>
<path d="M4369 5191 c-20 -16 -22 -23 -13 -38 15 -25 71 -29 95 -7 23 21 24
28 3 48 -21 22 -57 20 -85 -3z"/>
<path d="M2700 4965 c-10 -12 -8 -18 11 -34 l24 -19 -27 -12 c-21 -10 -32 -9
-59 4 -17 9 -38 16 -45 16 -24 0 -26 -22 -4 -37 l23 -16 -27 -14 c-25 -13 -36
-43 -16 -43 5 0 30 5 55 12 33 9 48 9 56 1 8 -8 5 -13 -11 -18 -13 -4 -20 -13
-18 -23 4 -17 20 -19 71 -6 21 5 37 0 68 -21 41 -27 69 -27 69 -1 0 8 -10 22
-22 30 -12 9 -19 19 -15 22 14 14 71 5 98 -15 16 -12 35 -21 44 -21 29 0 16
38 -22 64 -89 62 -146 96 -157 96 -7 0 -27 11 -46 25 -40 30 -35 28 -50 10z
m114 -104 c3 -5 -7 -11 -22 -14 -30 -6 -45 0 -37 14 8 12 52 12 59 0z"/>
<path d="M2252 4773 c-46 -23 -84 -70 -80 -102 7 -63 156 -62 241 3 57 43 61
76 12 99 -45 21 -130 22 -173 0z m132 -42 c3 -5 -1 -14 -9 -21 -12 -10 -21
-10 -45 0 -16 7 -30 16 -30 21 0 12 77 12 84 0z"/>
<path d="M4552 4720 c-7 -11 -21 -20 -32 -20 -14 0 -20 -7 -20 -24 0 -28 -24
-41 -40 -21 -18 21 -33 7 -25 -23 5 -20 0 -30 -22 -48 -21 -17 -25 -25 -17
-34 9 -9 18 -8 38 6 35 22 58 6 38 -27 -16 -25 -7 -41 21 -34 17 4 28 -4 50
-35 27 -38 57 -53 57 -29 0 6 -14 31 -31 56 -23 33 -28 48 -20 56 8 8 14 8 23
-1 25 -25 35 -13 33 41 -2 44 -5 51 -20 49 -28 -5 -35 18 -17 55 18 38 5 66
-16 33z m-24 -137 c-6 -7 -14 -10 -19 -7 -13 8 -11 32 4 37 17 6 28 -15 15
-30z"/>
<path d="M2544 4220 c-31 -12 -64 -59 -64 -89 0 -98 124 -140 180 -61 41 58
18 122 -53 149 -33 13 -35 13 -63 1z m91 -84 c7 -21 5 -30 -12 -47 -43 -43
-103 -18 -103 42 0 67 91 71 115 5z"/>
<path d="M2524 3901 c-64 -40 -61 -131 5 -165 60 -32 119 -8 141 58 27 83 -70
155 -146 107z m90 -37 c25 -25 24 -72 -2 -91 -39 -31 -92 -4 -92 47 0 49 61
78 94 44z"/>
<path d="M3892 4325 c-162 -35 -317 -202 -373 -400 -21 -74 -18 -237 5 -305
60 -175 227 -278 403 -250 224 37 423 293 423 545 0 224 -114 379 -305 414
-70 13 -73 13 -153 -4z m91 -75 c161 -178 145 -442 -37 -639 -42 -45 -136
-106 -203 -131 -52 -19 -57 -20 -74 -4 -25 23 -24 34 4 34 71 0 211 118 270
227 37 69 67 191 67 273 0 89 -22 158 -71 220 -38 49 -43 70 -14 70 7 0 33
-22 58 -50z m110 34 c154 -52 254 -265 214 -456 -8 -40 -24 -93 -35 -118 -31
-72 -107 -167 -172 -214 -87 -65 -155 -87 -248 -84 -42 2 -77 8 -79 13 -1 6
26 25 62 44 127 65 250 225 289 377 40 154 10 281 -100 432 -16 21 -15 22 3
22 11 0 40 -7 66 -16z m-165 -123 c29 -57 32 -71 32 -150 0 -96 -17 -177 -54
-249 -41 -80 -52 -83 -71 -16 -9 32 -32 89 -51 126 -30 59 -35 82 -40 161 -5
83 -3 96 18 137 29 56 81 87 113 66 11 -7 35 -41 53 -75z"/>
<path d="M2055 3611 c-40 -24 -69 -58 -57 -65 13 -8 121 56 122 72 0 18 -30
15 -65 -7z"/>
<path d="M2047 3519 c-36 -29 -49 -59 -26 -59 14 0 99 70 99 81 0 19 -37 8
-73 -22z"/>
<path d="M3198 2158 c-27 -9 -28 -12 -28 -85 0 -73 1 -74 23 -67 57 18 97 64
97 112 0 49 -31 63 -92 40z"/>
<path d="M3735 2128 c-16 -39 -37 -147 -30 -158 4 -7 103 5 112 14 8 8 -15
147 -27 162 -20 23 -40 16 -55 -18z m32 -120 c-3 -8 -6 -5 -6 6 -1 11 2 17 5
13 3 -3 4 -12 1 -19z"/>
<path d="M5610 7094 c-133 -28 -199 -55 -230 -92 -38 -46 -68 -160 -79 -298
-9 -110 1 -352 19 -474 8 -58 13 -69 51 -103 25 -22 63 -43 95 -53 52 -15 55
-15 136 13 112 39 223 105 244 145 20 39 20 155 0 203 -8 18 -26 41 -39 50
-24 15 -24 17 -10 46 18 37 10 171 -13 207 -14 22 -13 25 32 68 l47 46 -6 88
c-6 100 -20 130 -72 154 -40 19 -88 19 -175 0z m170 -34 c25 -13 41 -65 30
-95 -11 -28 -81 -71 -192 -117 -73 -30 -78 -34 -84 -67 -3 -20 -8 -44 -11 -55
-6 -21 11 -20 82 8 53 20 114 20 137 -1 26 -24 24 -84 -4 -110 -27 -24 -106
-65 -163 -83 -47 -15 -55 -24 -55 -67 0 -62 2 -63 101 -32 120 39 154 38 179
-3 27 -45 25 -69 -7 -100 -70 -65 -266 -144 -320 -129 -48 14 -92 40 -108 64
-21 32 -39 264 -31 402 7 124 36 253 66 295 23 33 75 55 185 80 90 21 168 25
195 10z"/>
<path d="M1085 7066 c-50 -22 -120 -109 -156 -194 -74 -178 -115 -396 -105
-562 10 -163 34 -221 97 -234 70 -14 129 46 164 165 17 60 28 69 88 69 24 0
27 -3 27 -35 0 -149 89 -247 180 -200 97 50 111 241 44 605 -45 246 -86 335
-176 381 -43 22 -119 24 -163 5z m166 -47 c65 -46 104 -153 144 -396 43 -253
28 -390 -46 -415 -67 -22 -104 28 -119 164 -5 45 -11 82 -13 85 -2 2 -38 -2
-81 -8 -71 -11 -77 -13 -81 -38 -25 -122 -66 -190 -119 -194 -21 -1 -34 5 -50
26 -76 100 21 591 145 731 65 75 153 93 220 45z"/>
<path d="M1117 6803 c-18 -42 -32 -96 -41 -161 l-6 -43 47 6 c103 13 96 6 91
93 -5 87 -24 136 -54 140 -16 2 -25 -6 -37 -35z m53 -139 c0 -8 -6 -14 -14
-14 -9 0 -12 7 -9 20 6 22 23 18 23 -6z"/>
<path d="M4464 7036 c-81 -85 -127 -266 -128 -506 -1 -249 31 -402 92 -450 36
-29 66 -25 97 12 34 40 44 64 66 163 9 44 18 74 18 67 2 -34 65 -175 91 -202
33 -35 87 -41 112 -12 26 29 65 114 83 182 24 86 31 92 39 28 18 -144 61 -254
103 -264 102 -26 139 79 137 391 -1 293 -35 488 -100 572 -28 37 -77 63 -119
63 -43 0 -98 -61 -151 -169 -27 -55 -51 -100 -54 -100 -3 0 -25 43 -50 96 -57
123 -102 173 -155 173 -32 0 -45 -7 -81 -44z m153 -49 c33 -52 84 -164 108
-235 9 -30 20 -50 24 -45 4 4 16 31 26 58 34 94 90 199 126 237 94 99 179 6
215 -236 19 -121 15 -449 -6 -506 -30 -81 -71 -93 -100 -27 -25 56 -56 214
-72 359 -7 64 -16 114 -20 112 -4 -3 -8 -17 -8 -31 0 -14 -12 -78 -26 -142
-61 -274 -118 -356 -181 -262 -25 37 -81 205 -110 331 l-17 75 -8 -105 c-17
-250 -53 -370 -110 -370 -27 0 -64 86 -79 180 -17 110 -5 322 25 441 27 106
52 163 88 196 48 44 84 35 125 -30z"/>
<path d="M2174 7052 c-28 -22 -52 -70 -79 -157 l-21 -70 -13 49 c-33 133 -104
192 -160 133 -12 -13 -34 -54 -50 -90 -26 -63 -41 -76 -41 -37 0 36 -32 121
-56 150 -53 63 -137 28 -164 -68 -23 -83 -1 -523 35 -694 36 -174 125 -249
206 -172 26 25 88 139 114 209 6 16 12 7 30 -45 32 -93 60 -144 95 -174 104
-87 178 37 246 412 31 168 38 378 15 469 -22 89 -101 131 -157 85z m91 -36
c31 -31 39 -92 32 -220 -7 -115 -64 -403 -96 -488 -70 -184 -149 -130 -222
152 -15 58 -30 98 -32 90 -48 -156 -117 -302 -158 -333 -58 -43 -116 37 -143
198 -23 135 -38 432 -27 507 11 66 45 112 79 106 46 -9 81 -117 91 -283 l6
-100 42 130 c83 254 126 278 183 101 12 -36 30 -110 39 -164 16 -84 19 -92 24
-62 4 19 14 74 22 122 18 99 49 205 68 229 13 16 47 38 60 39 4 0 19 -11 32
-24z"/>
<path d="M3496 6174 c-10 -25 -7 -84 4 -84 6 0 10 15 10 34 0 19 3 41 6 50 3
9 2 16 -4 16 -5 0 -13 -7 -16 -16z"/>
<path d="M2367 5964 c-7 -7 28 -80 43 -89 17 -11 11 22 -11 59 -23 39 -23 39
-32 30z"/>
<path d="M4223 5930 c-24 -41 -29 -60 -15 -60 7 0 52 82 52 95 0 16 -18 -1
-37 -35z"/>
<path d="M1515 5912 c-9 -52 -27 -72 -63 -72 -53 0 -55 -17 -3 -24 52 -7 52
-7 67 -76 l8 -35 11 50 c11 49 12 50 60 60 54 12 52 19 -11 30 -41 6 -42 7
-51 58 l-10 52 -8 -43z"/>
<path d="M5337 5835 l-28 -84 -86 -3 -87 -3 72 -57 71 -58 -29 -86 c-33 -97
-38 -96 64 -16 l55 44 68 -55 c37 -31 69 -54 70 -53 2 1 -8 36 -22 76 -14 40
-25 78 -25 84 0 6 29 34 65 61 35 28 64 53 65 58 0 4 -37 7 -83 7 l-83 0 -28
85 c-15 47 -28 85 -30 85 -1 0 -14 -38 -29 -85z"/>
<path d="M1304 5778 l-19 -102 -105 -21 c-115 -23 -114 -24 21 -50 l86 -17 18
-99 c10 -55 22 -96 25 -92 4 5 15 49 25 100 l17 92 47 9 c25 6 73 16 106 23
l60 12 -103 21 c-65 13 -106 27 -111 36 -4 8 -14 49 -21 90 -7 41 -15 81 -19
88 -4 7 -16 -34 -27 -90z"/>
<path d="M2040 5743 c0 -5 16 -26 35 -48 40 -47 47 -30 9 21 -25 32 -44 44
-44 27z"/>
<path d="M4538 5716 c-16 -19 -28 -41 -28 -48 1 -15 70 57 70 72 0 19 -15 10
-42 -24z"/>
<path d="M1581 5542 c-1 -14 -10 -26 -23 -32 -18 -7 -19 -9 -5 -9 10 -1 22
-11 27 -23 l9 -23 7 23 c4 13 15 22 28 23 l21 0 -21 11 c-12 5 -27 20 -32 32
l-11 21 0 -23z"/>
<path d="M4812 5448 c-40 -31 -52 -48 -34 -48 14 0 88 67 81 74 -3 3 -24 -9
-47 -26z"/>
<path d="M1795 5435 c41 -36 55 -42 55 -26 0 14 -64 61 -81 61 -8 -1 4 -16 26
-35z"/>
<path d="M1550 5140 c0 -8 70 -50 85 -50 16 0 0 21 -31 39 -39 23 -54 26 -54
11z"/>
<path d="M5020 5129 c-43 -26 -45 -28 -38 -35 7 -6 84 31 93 46 10 17 -18 11
-55 -11z"/>
<path d="M1400 4781 c0 -10 54 -31 81 -31 35 0 19 18 -25 29 -54 13 -56 13
-56 2z"/>
<path d="M5170 4778 c-38 -10 -63 -28 -41 -28 25 0 91 23 91 32 0 10 -4 9 -50
-4z"/>
<path d="M1320 4401 c0 -9 48 -21 86 -21 38 0 28 17 -13 24 -52 8 -73 8 -73
-3z"/>
<path d="M5220 4401 c-23 -4 -31 -9 -22 -14 15 -10 102 2 102 14 0 10 -26 10
-80 0z"/>
<path d="M1363 4023 c-24 -2 -43 -8 -43 -14 0 -10 53 -12 88 -3 23 7 31 25 10
22 -7 -1 -32 -3 -55 -5z"/>
<path d="M5200 4022 c0 -5 7 -13 16 -16 25 -10 84 -7 84 4 0 6 -8 10 -19 10
-10 0 -33 3 -50 6 -18 4 -31 2 -31 -4z"/>
<path d="M1443 3647 c-36 -14 -53 -27 -33 -27 24 0 90 23 90 32 0 11 -18 9
-57 -5z"/>
<path d="M5120 3653 c0 -13 83 -37 102 -30 8 3 1 9 -17 17 -46 18 -85 24 -85
13z"/>
<path d="M1593 3297 c-41 -20 -55 -37 -32 -37 17 0 79 40 79 51 0 11 4 12 -47
-14z"/>
<path d="M4985 3311 c-6 -11 55 -51 79 -51 10 0 14 5 11 10 -11 17 -84 50 -90
41z"/>
<path d="M5425 3076 c-8 -51 -17 -59 -80 -71 l-40 -8 55 -11 55 -11 10 -50
c12 -54 19 -52 30 12 6 41 7 41 56 48 58 8 57 13 -2 26 -48 11 -59 22 -59 59
0 14 -4 31 -9 39 -7 10 -11 1 -16 -33z"/>
<path d="M5222 3005 c-6 -28 -14 -72 -17 -98 -4 -26 -13 -54 -20 -60 -7 -7
-56 -21 -109 -31 -53 -10 -95 -20 -93 -22 2 -2 41 -11 88 -19 128 -24 121 -17
142 -134 11 -56 21 -101 23 -99 2 3 13 49 24 103 11 55 25 102 30 105 6 4 53
14 106 24 52 10 93 20 91 22 -2 2 -48 13 -102 24 -55 11 -102 25 -106 31 -4 6
-12 45 -19 87 -18 115 -25 127 -38 67z"/>
<path d="M1802 2978 c-22 -17 -39 -35 -36 -40 6 -9 52 20 74 47 24 29 4 25
-38 -7z"/>
<path d="M4776 3001 c-3 -5 11 -23 33 -40 41 -33 51 -37 51 -22 0 15 -78 72
-84 62z"/>
<path d="M1400 2805 l-24 -75 -74 0 c-40 0 -72 -4 -70 -9 2 -5 29 -30 60 -55
l57 -46 -25 -72 c-13 -39 -23 -73 -21 -74 2 -2 30 19 64 46 l60 49 62 -50 c33
-28 61 -46 61 -41 0 5 -9 35 -20 67 -11 32 -20 63 -20 69 0 6 28 34 63 61 l62
50 -79 5 -79 5 -23 69 c-13 38 -25 71 -27 72 -2 2 -14 -30 -27 -71z"/>
<path d="M2068 2706 c-16 -19 -28 -41 -28 -48 1 -15 70 57 70 72 0 19 -15 10
-42 -24z"/>
<path d="M4510 2733 c1 -16 59 -78 66 -71 8 9 -42 78 -57 78 -5 0 -9 -3 -9 -7z"/>
<path d="M5496 2698 c-6 -19 -15 -28 -30 -29 -21 0 -21 0 2 -9 12 -5 26 -20
31 -32 8 -21 8 -21 15 5 4 19 13 27 29 28 20 1 20 1 -5 10 -15 6 -28 19 -31
32 -3 20 -4 20 -11 -5z"/>
<path d="M2386 2493 c-14 -29 -22 -53 -16 -53 13 0 52 78 47 93 -2 7 -16 -12
-31 -40z"/>
<path d="M4200 2530 c0 -18 40 -90 50 -90 14 0 13 5 -10 50 -20 40 -40 60 -40
40z"/>
<path d="M932 2352 c-129 -69 -205 -241 -205 -467 -1 -136 14 -202 62 -277 67
-105 201 -139 307 -78 74 42 99 86 99 176 0 113 -38 139 -157 108 -76 -20 -85
-17 -97 37 -9 38 11 152 30 175 17 21 29 7 29 -34 0 -49 22 -79 66 -91 44 -12
82 1 109 37 16 22 21 46 23 137 5 154 -22 227 -102 276 -40 24 -119 24 -164 1z
m155 -32 c53 -32 77 -91 78 -186 0 -96 -16 -124 -71 -124 -40 0 -64 29 -64 78
0 43 -16 72 -40 72 -71 0 -120 -281 -63 -359 25 -32 64 -37 134 -17 65 20 64
20 83 0 65 -65 -66 -185 -185 -169 -125 17 -199 136 -199 320 0 88 15 155 52
237 63 137 185 203 275 148z"/>
<path d="M5058 2359 c-58 -13 -156 -66 -170 -91 -9 -17 -13 -102 -13 -338 0
-307 1 -316 22 -357 30 -55 82 -75 122 -46 38 28 61 83 68 162 l6 70 46 16
c86 28 174 124 197 215 10 39 12 19 16 -160 6 -238 16 -277 75 -305 28 -14 40
-15 63 -5 36 15 71 83 77 148 8 84 10 88 58 106 63 25 139 96 172 164 26 52
28 67 28 167 0 97 -3 115 -23 150 -47 81 -132 122 -228 110 -63 -8 -188 -66
-203 -94 -6 -11 -12 -57 -12 -103 l-2 -83 -8 62 c-10 80 -32 126 -80 167 -60
51 -126 65 -211 45z m135 -33 c21 -8 48 -22 59 -33 61 -55 79 -174 38 -258
-30 -63 -110 -132 -175 -150 l-52 -16 -6 -79 c-3 -51 -12 -94 -25 -118 -16
-32 -24 -37 -53 -37 -29 0 -37 5 -51 35 -24 48 -33 213 -23 423 l7 168 49 25
c51 25 139 53 174 53 11 0 37 -6 58 -13z m472 3 c58 -16 110 -75 125 -142 11
-45 10 -62 -4 -112 -22 -75 -97 -157 -165 -180 -77 -28 -75 -25 -82 -113 -8
-99 -31 -146 -75 -150 -46 -4 -64 30 -75 141 -8 84 -4 423 6 473 6 30 141 88
215 93 8 0 33 -4 55 -10z"/>
<path d="M5088 2158 c-27 -9 -28 -13 -28 -74 0 -35 2 -64 5 -64 14 0 62 30 79
49 21 23 24 64 6 86 -14 17 -24 18 -62 3z"/>
<path d="M5568 2158 c-27 -9 -28 -13 -28 -74 0 -78 11 -81 71 -24 36 34 40 43
34 67 -10 43 -27 50 -77 31z"/>
<path d="M1462 2349 c-46 -9 -107 -71 -143 -144 -105 -214 -134 -609 -48 -655
65 -36 128 14 158 126 8 30 18 43 34 48 47 12 57 8 57 -26 1 -137 98 -215 170
-138 41 44 54 112 47 245 -7 119 -38 311 -63 387 -38 116 -120 177 -212 157z
m103 -45 c63 -41 112 -198 135 -435 11 -115 -2 -182 -40 -210 -56 -41 -97 6
-107 123 l-6 70 -55 -7 c-77 -10 -78 -10 -91 -68 -15 -68 -44 -115 -76 -123
-73 -18 -92 107 -49 321 33 163 101 300 164 332 35 18 96 16 125 -3z"/>
<path d="M1457 2121 c-9 -21 -19 -62 -23 -90 -3 -28 -7 -54 -8 -58 -1 -8 66
-6 98 4 16 5 18 12 12 65 -11 112 -51 151 -79 79z m38 -100 c3 -5 1 -12 -5
-16 -5 -3 -10 1 -10 9 0 18 6 21 15 7z"/>
<path d="M4552 2350 c-126 -29 -241 -324 -242 -615 0 -136 28 -195 94 -195 44
0 79 36 106 106 11 30 20 59 20 63 0 9 34 21 63 21 12 0 17 -8 17 -31 0 -135
98 -216 170 -139 42 45 54 112 46 253 -7 123 -35 296 -62 379 -37 115 -122
178 -212 158z m103 -46 c52 -34 90 -133 119 -309 33 -204 26 -300 -24 -336
-56 -41 -95 4 -106 121 l-7 71 -51 -6 c-79 -10 -83 -12 -90 -53 -9 -61 -47
-126 -80 -137 -59 -20 -84 61 -66 211 27 220 107 413 184 444 34 14 95 11 121
-6z"/>
<path d="M4556 2138 c-17 -27 -35 -100 -36 -144 0 -29 2 -30 33 -27 83 10 80
7 74 80 -6 63 -27 113 -47 113 -5 0 -16 -10 -24 -22z m34 -129 c0 -5 -4 -9
-10 -9 -5 0 -10 7 -10 16 0 8 5 12 10 9 6 -3 10 -10 10 -16z"/>
<path d="M1898 2323 c-74 -80 -108 -223 -108 -463 0 -215 19 -294 79 -324 25
-13 31 -13 50 0 27 19 57 78 66 129 12 65 20 70 34 23 43 -145 124 -181 175
-79 13 26 32 74 42 106 20 67 18 70 44 -63 17 -83 46 -126 87 -130 41 -4 67
32 83 115 17 86 8 479 -13 550 -31 107 -80 163 -144 163 -40 0 -84 -48 -132
-142 l-38 -76 -36 77 c-47 101 -84 141 -129 141 -24 0 -42 -8 -60 -27z m99
-25 c30 -33 74 -125 117 -243 5 -15 14 -2 39 61 77 191 140 246 200 174 51
-61 77 -189 77 -386 0 -186 -21 -274 -65 -274 -29 0 -65 132 -87 317 -6 57
-14 101 -16 98 -2 -2 -11 -39 -19 -82 -35 -189 -88 -315 -127 -300 -26 10 -67
108 -102 246 l-32 124 -7 -109 c-9 -136 -30 -235 -56 -263 -28 -30 -40 -24
-68 33 -20 41 -25 67 -29 170 -7 187 31 370 88 428 34 34 60 36 87 6z"/>
<path d="M3490 2278 c0 -43 13 -77 23 -62 8 14 -4 104 -14 104 -5 0 -9 -19 -9
-42z"/>
</g>
</svg>
